<svg width="23" height="21" viewBox="0 0 23 21" fill="none" xmlns="http://www.w3.org/2000/svg">
<path d="M2.35938 1.81443C2.79005 1.76423 3.21304 1.957 3.45769 2.31497C5.17897 4.83358 7.24639 5.88132 9.54039 6.11969C9.65297 5.1383 9.9178 4.16863 10.4156 3.31491C11.1458 2.06231 12.3335 1.14013 14.0301 0.799375C16.3744 0.328508 18.1594 1.17749 19.1951 2.21724L21.2856 1.82645C21.7322 1.74299 22.1865 1.92627 22.4501 2.2962C22.7137 2.66612 22.7387 3.15542 22.514 3.55023L20.5079 7.07599C20.6908 12.1643 19.2768 15.7153 16.262 18.1618C14.6628 19.4595 12.3743 20.1955 9.86239 20.4228C7.3308 20.6518 4.46917 20.3748 1.62446 19.5442C1.12538 19.3984 0.782968 18.9401 0.784811 18.4202C0.786643 17.9002 1.13228 17.4443 1.63237 17.3021C3.06296 16.8952 4.15181 16.5435 5.13607 15.9292C3.73787 15.1869 2.70763 14.2165 1.97847 13.1101C0.965026 11.5723 0.589231 9.85803 0.514623 8.31185C0.440026 6.76583 0.663443 5.3339 0.898748 4.30044C1.03269 3.71213 1.18914 3.12109 1.40479 2.55648C1.56141 2.14955 1.92872 1.86465 2.35938 1.81443Z" fill="current"/>
</svg>
