<svg id="Layer_1" data-name="Layer 1" xmlns="http://www.w3.org/2000/svg" xmlns:xlink="http://www.w3.org/1999/xlink" viewBox="0 0 36.5298 34.5733"><defs><style>.cls-1{fill:url(#linear-gradient);}.cls-2{fill:url(#linear-gradient-2);}.cls-3{fill:url(#linear-gradient-3);}.cls-4{fill:url(#linear-gradient-4);}.cls-5{fill:url(#linear-gradient-5);}.cls-6{fill:url(#linear-gradient-6);}.cls-7{fill:url(#linear-gradient-7);}.cls-8{fill:url(#linear-gradient-8);}.cls-9{fill:url(#linear-gradient-9);}</style><linearGradient id="linear-gradient" x1="15.1439" y1="8.693" x2="15.1439" y2="38.7339" gradientUnits="userSpaceOnUse"><stop offset="0" stop-color="#9c509f"/><stop offset="1" stop-color="#4f317d"/></linearGradient><linearGradient id="linear-gradient-2" x1="31.6552" y1="8.3719" x2="31.6552" y2="38.8546" xlink:href="#linear-gradient"/><linearGradient id="linear-gradient-3" x1="22.8221" y1="8.693" x2="22.8221" y2="38.7339" xlink:href="#linear-gradient"/><linearGradient id="linear-gradient-4" x1="31.9429" y1="8.693" x2="31.9429" y2="38.7339" xlink:href="#linear-gradient"/><linearGradient id="linear-gradient-5" x1="20.2616" y1="8.693" x2="20.2616" y2="38.7339" xlink:href="#linear-gradient"/><linearGradient id="linear-gradient-6" x1="27.7577" y1="8.693" x2="27.7577" y2="38.7339" xlink:href="#linear-gradient"/><linearGradient id="linear-gradient-7" x1="34.2038" y1="8.693" x2="34.2038" y2="38.7339" xlink:href="#linear-gradient"/><linearGradient id="linear-gradient-8" x1="37.585" y1="8.693" x2="37.585" y2="38.7339" xlink:href="#linear-gradient"/><linearGradient id="linear-gradient-9" x1="36.4634" y1="8.693" x2="36.4634" y2="38.7339" xlink:href="#linear-gradient"/></defs><path class="cls-1" d="M15.601,31.7789c1.0217-.7395,1.7728-1.482,2.8749-2.215a12.0539,12.0539,0,0,0,1.2882-.6969c-.2094.0466-1.2763.2773-1.5838.37.0733-.0694,1.269-.7259,1.4677-.8764.2076-.1574.9848-.4175,1.172-.5385a3.3136,3.3136,0,0,1,1.5182-.5812s-.4342-.0757-.9147-.155c-.3993-.0659-.8449-.0161-1.0857-.0455a2.5453,2.5453,0,0,1-.9656-.35l-.1366-1.64a4.7045,4.7045,0,0,0,.985-.6608,10.2163,10.2163,0,0,1,.96-.8836c.4578-.3241,1.0775-.4568,1.5437-.8108a17.4383,17.4383,0,0,0,1.7312-1.55,6.6737,6.6737,0,0,0,2.044-4.2341c.1825-1.46.0365-2.409-.438-2.5185a2.4418,2.4418,0,0,1-1.1315-.73c-.292-.292-.6935-.4015-.9125-.84a1.4289,1.4289,0,0,0-1.8616-.876c-.2414.0754-.6839.1961-1.2509.3439-.5595.1459-1.3845.1535-2.1127.335-1.0184.2538-1.9477.5589-2.95.8009-.5422.1309-1.87.3047-2.57.5428a15.9643,15.9643,0,0,1,3.001.16c-.2381.1261-3.1776.42-3.3841.4629-.5643.1182-1.5586.22-2.123.3193-1.2676.2227-4.0219.8927-4.0219.8927a18.9139,18.9139,0,0,1,2.8438.0557c.2563.1025.2977.1869.1676,1.0791a6.6563,6.6563,0,0,1-.195.67c-.0766.2362-.1948.4315-.2787.6775-.1041.3053-.3034.5917-.3561.7413-.1.2829-.4334.47-.6923.6422a.5831.5831,0,0,0-.2839.5568.5364.5364,0,0,0,.797.4149.5913.5913,0,0,0,.3385-.59,1.1619,1.1619,0,0,1,.1875-.7826c.0735-.1209.2954-.3685.4781-.662.1351-.2171.33-.3927.4627-.6027a2.7185,2.7185,0,0,1,.4646-.5151c.3824-.43,1.093-.6728,1.1838-.4858a4.8161,4.8161,0,0,1,.2155.9429c.0057.1185.1173.232-.2607.8888-.0347.06-.6457.6821-1.0265,1.1063-.2214.2468-.5174.5607-.7084.7724s-.4288.3773-.5036.4617c-.1873.2115-.431.2339-.7889.2686a.92.92,0,0,0-.7092.4045c-.2627.5832.1576,1.0928.8458.9142.1924-.05.423-.4044.4834-.5937a1.2075,1.2075,0,0,1,.4686-.6968c.0918-.0566.3339-.3016.5857-.4747a8.2,8.2,0,0,1,1.1136-.4859c.7677-.329.7421.2374.7537.4a6.545,6.545,0,0,1,.1131.9454c-.0157.3607-.1323.5545-.6843.89a7.9238,7.9238,0,0,1-1.3507.514,6.3731,6.3731,0,0,1-1.1036.0985,1.4838,1.4838,0,0,1-.9825-.2614,1.4872,1.4872,0,0,0-.4906-.0217.7294.7294,0,0,0-.5515.4776.6155.6155,0,0,0,.5126.7637,1.0727,1.0727,0,0,0,.5341-.0471,1.7008,1.7008,0,0,1,1.0141-.46c.1471-.0114.86-.0293,1.2384-.0052a2.7608,2.7608,0,0,1,.8934.2051c.6624.313,1.21.4019,1.2592.7844l.0285.3485c-.0163.3771.0884,1.7642-.3969,1.687-.2882-.0459-1.6082-.0949-1.8595-.1359a6.4212,6.4212,0,0,1-.8935-.2426c-.3821-.0962-.4412-.1655-1.2795-.4412A1.6637,1.6637,0,0,1,7.5,25.2424a.7245.7245,0,0,0-1.3523.448.7911.7911,0,0,0,.75.5736,3.7156,3.7156,0,0,1,1.1913.1875,14.3893,14.3893,0,0,1,1.4449.7941,5.15,5.15,0,0,1,1.103.8273,8.38,8.38,0,0,1,.6209.7605c.428.579.8325,1.0874.6615,1.6691a13.5751,13.5751,0,0,1-.9809,1.9959.6621.6621,0,0,1-1.1211.1062c-.56-.5254-1.77-1.6125-2.0119-1.88-.4044-.4469-.6955-.8569-1.24-1.55a9.3585,9.3585,0,0,1-1.0325-1.4155,2.4719,2.4719,0,0,1-.1916-1.1919.7055.7055,0,0,0-.6385-.7236,1.1037,1.1037,0,0,0-.66.16.7759.7759,0,0,0-.33.6385.8412.8412,0,0,0,.2554.5853c.2978.2546.8668.3868,1.0535.8194.2346.5437.64.8251.8973,1.4383.2818.6717.7144,1.1263,1.2145,2.0415.3.55,1.4788,2.62,1.668,3.13a4.7683,4.7683,0,0,1,.1162,2.8861c-.1671.4578-.2783.7623-.3035.8316.2-.2225.6619-.7335,1.2854-1.3933.3768-.3986.9583-.7893,1.4314-1.2658.5611-.565,1.029-1.2254,1.6583-1.8052a9.1445,9.1445,0,0,0,1.07-1.1146,14.3336,14.3336,0,0,1,1.15-1.2357,10.9717,10.9717,0,0,0-.66,1.0978C14.724,32.5308,15.4355,31.8986,15.601,31.7789Zm1.6215-13.8448c.92-.4108,1.7828-.8429,1.9007-.8914.4658-.1913,1.2644-.4116,1.7808-.5837.6661-.222,1.2626.5932,1.2261.9217s.4745.8761.511,1.0586a8.972,8.972,0,0,1-.8139,2.085,7.5073,7.5073,0,0,1-2.8106,1.9711s-.2167-3.14-.2333-3.4554c-.0132-.249-.4373-.3087-1.0631-.1736-.328.0709-.86.0774-1.1738.1736-.6165.1893-2.1392.511-2.1392.511A23.0681,23.0681,0,0,1,17.2225,17.9341Z" transform="translate(-3.7125 -5.3993)"/><path class="cls-2" d="M40.179,19.1989a2.3533,2.3533,0,0,0-.1654-.6034c-.1038-.24-.2464-.497-.3944-.8175-.131-.2839-.2334-.5989-.378-.9042-.0807-.17-.1356-.3363-.2157-.5038-.1014-.2121-.2694-.4863-.3636-.6817-.2-.4138-.4053-1.2166-.4745-1.3963a1.1672,1.1672,0,0,0-.7838-.6881.5245.5245,0,0,0-.6276.74,1.67,1.67,0,0,0,.6181.4737,1.7616,1.7616,0,0,1,.9844.87c.1183.27.3734.6855.4779.994.0964.2845.1834.4565.2721.7327.1177.366.2421.6636.32.9482a2.1237,2.1237,0,0,1,.0606.7939,3.84,3.84,0,0,1-.19.4807,1.0942,1.0942,0,0,1-.3374.3763c-.1812.1546-.3737-.0435-.4448-.1309a5.01,5.01,0,0,0-.5765-.745,4.6534,4.6534,0,0,1,.1095,1.898c-.1056.2641-.3011.7159-.5285,1.1549-.2977.5745-.4443.5491-.5735.63a.1885.1885,0,0,0-.1127.1779c-.011.1317.0235.502.0344.6776a3.5914,3.5914,0,0,1-.0914,1.579,2.1107,2.1107,0,0,0-.1-.7556,4.12,4.12,0,0,0-.3462-.7247,4.3261,4.3261,0,0,1-.4719-.9218,1.2308,1.2308,0,0,1,.104-.6745c.0287-.0671.152-.3932.2114-.5479a15.9054,15.9054,0,0,0,.962-3.2963.6223.6223,0,0,1,.1908-.3717.8158.8158,0,0,0-.09-.2875,6.7026,6.7026,0,0,0-1.3054-1.75,5.86,5.86,0,0,0-1.8981-1.314c.1095.292.511.584.511.9125s.219.7665.146.9855.365.657.365.7665-.365-.073-.365-.073a8.5428,8.5428,0,0,1-.365,2.0806,11.9667,11.9667,0,0,1-.7768,1.6983c-.1236.21-.4108.449-.5863.6884a1.7142,1.7142,0,0,1-1.1459.4085,2.0928,2.0928,0,0,0-1.4017.53,1.8177,1.8177,0,0,1,.7692-1.1453c.2768-.1868.7027-.4545.8113-.7337.0647-.1663-.0083-.5089.062-.7757.127-.4811.1227-.7731.2208-1.3126.0784-.4306.33-1.6947.4149-2.1807.1331-.7594.2232-1.4646.2455-1.7762.01-.1457-.3285-.511-.292-.6571s.6935-.365.511-.4745c-.0634-.038-.4745-.2433-1.0161-.5041a1.37,1.37,0,0,1-.5315-.9712c-.0312-.2845-.16-.5208-.1863-.7515a7.2583,7.2583,0,0,0-.1489-.9A2.4273,2.4273,0,0,0,30.79,9.57c-.2134-.2656-.3638-.539-.6726-.9151a5.79,5.79,0,0,0-.9036-.7975,5.8861,5.8861,0,0,1-.817-.8439c-.27-.32-.4781-.5191-.58-.6455-.3172-.3938-.5063-.8123-.8533-.9081-.9519-.2625-1.5427.372-1.2254.9738.1953.37.8953.4929,1.2472.5689a2.6717,2.6717,0,0,1,1.4114.5689c.18.2118.5608.4153.7372.6605.1616.2248.4491.52.58.7278a2.0333,2.0333,0,0,1,.4927,1.488,2.1531,2.1531,0,0,1-.2825,1.0264.665.665,0,0,1-.6922.2741c-.024-.0078-.0472-.0151-.068-.021-.7665-.219-3.03-.62-4.0151-.219a3.5534,3.5534,0,0,1,1.2678.2844A4.9312,4.9312,0,0,1,27.74,12.8591a5.6227,5.6227,0,0,1,.3332,1.7387c.0509-.1153.1385-.3172.1987-.4627a5.9257,5.9257,0,0,0,.065.9749,7.3231,7.3231,0,0,1,.0237,1.8737,16.7514,16.7514,0,0,1-1.645,4.1186c-.16.25-.5587,1.1557-.9457,1.6887-.2707.3728-.5667.6982-.8019,1.0171-.1192.1616.7224-.2454.5148-.0038-.0978.1137-.7638.62-.8444.7261a4.7714,4.7714,0,0,1-.5849.593,12.8025,12.8025,0,0,0-.9856,1.6061,48.8994,48.8994,0,0,1,4.7452-1.8981,15.0115,15.0115,0,0,1,3.9508-.4575c.4679.01,2.1324.0077,2.6963-1.1421-.1252.5634-.2874,1.345.2379,1.82a4.5285,4.5285,0,0,1,1.5467,2.079,5.15,5.15,0,0,1-.9491,3.3946s1.0221-.9126,1.3871-1.2046a6.4915,6.4915,0,0,0,1.4235-2.3,29.0086,29.0086,0,0,0,1.606-4.3071,1.1241,1.1241,0,0,0-.0085-.5211l.0045.0033a1.3355,1.3355,0,0,1,.0617-.8208c.0958-.2638.0851-.5524.18-.8419.0755-.2308.1652-.5367.2418-.7283A.9054.9054,0,0,0,40.179,19.1989Z" transform="translate(-3.7125 -5.3993)"/><path class="cls-3" d="M30.3336,31.2294c-.4068-.2122-.91-.5119-1.4683-.8443-.6024-.3587-1.28-.7623-1.97-1.1359-.0438-.0237-.7758-.5691-1.1324-.7723a.9347.9347,0,0,0-.4312.0046c-.438.11-1.2922-.3567-1.8032-.2837a17.5067,17.5067,0,0,0-3.0693.7059c-.62.292-2.9387,3.4469-3.5227,3.9944a7.1479,7.1479,0,0,0-1.6061,2.3,5.9147,5.9147,0,0,0,.7666,3.03,5.1167,5.1167,0,0,1,.292-2.628c.219-.438,4.9641-4.49,6.0226-4.5626C23.3775,30.97,28.2671,31.025,30.3336,31.2294Z" transform="translate(-3.7125 -5.3993)"/><path class="cls-4" d="M34.9616,26.6129a10.6932,10.6932,0,0,1-1.0209-1.3748,1.0073,1.0073,0,0,1-.0524-.7321c.04-.144-.12-.0538-.2175.1755a1.6892,1.6892,0,0,0,.2517,1.6071,1.5231,1.5231,0,0,1-.158,1.4715,3.4739,3.4739,0,0,1-1.3135.8895,7.5937,7.5937,0,0,1-2.8223.4368c-.431.026-.7834.0474-1.1109.0621.33.2268.5411.344,1.4771.9166a7.7732,7.7732,0,0,0,3.2344,1.4528c1.0842-.1731,1.594-1.48,1.9664-2.57A2.5224,2.5224,0,0,0,34.9616,26.6129Z" transform="translate(-3.7125 -5.3993)"/><path class="cls-5" d="M18.7246,38.0447a4.8317,4.8317,0,0,1-.3242-2.908,3.11,3.11,0,0,0-1.5231,1.5676,2.1175,2.1175,0,0,0,.246,2.1984,15.54,15.54,0,0,0,2.55.8211,26.0585,26.0585,0,0,0,4.1612.2189C22.01,39.6508,19.2721,38.6652,18.7246,38.0447Z" transform="translate(-3.7125 -5.3993)"/><path class="cls-6" d="M30.15,33.2266a15.0637,15.0637,0,0,0-3.2424,1.2924c-.7028.4685-2.05,2.9782-2.4884,3.4527a7.3721,7.3721,0,0,1-1.4252,1.007,11.8683,11.8683,0,0,0,2.3147.4453,3.1391,3.1391,0,0,0,.9593-.0763,7.5049,7.5049,0,0,0,2.3124-1.376c.584-.657,2.0805-3.5406,2.3-3.8325a2.8249,2.8249,0,0,1,1.6424-.4016A7.479,7.479,0,0,0,30.15,33.2266Z" transform="translate(-3.7125 -5.3993)"/><path class="cls-7" d="M37.0188,34.9646a2.6979,2.6979,0,0,1-.8468-.1685c-.1257-.0252-1.1865-.36-2.2635-.6747a5.4736,5.4736,0,0,0-2.2725.2078,3.1184,3.1184,0,0,0-.7678,1.4259,5.31,5.31,0,0,1,1.2158-.229c.4015.0365,3.5406.4381,3.7961.3651a9.849,9.849,0,0,0,1.6593-1.11A1.8828,1.8828,0,0,1,37.0188,34.9646Z" transform="translate(-3.7125 -5.3993)"/><path class="cls-8" d="M37.4878,32.6408a2.2252,2.2252,0,0,1-.2189,1.1681,3.7392,3.7392,0,0,1-.37.42,1.0664,1.0664,0,0,0,.75-.058,1.637,1.637,0,0,0,.6209-.3556c.1033-.5175.2088-1.42.0217-1.576a3.86,3.86,0,0,0-1.4236-.3285.2682.2682,0,0,0-.0911.0161.9635.9635,0,0,1,.2683.0983A1.1488,1.1488,0,0,1,37.4878,32.6408Z" transform="translate(-3.7125 -5.3993)"/><path class="cls-9" d="M36.48,32.2954a.3531.3531,0,0,0-.2945.0835c-.02.037-.05.0815-.0676.1113a.5623.5623,0,0,0,.0731.6934.9844.9844,0,0,1,.2189-.511.74.74,0,0,1,.4861-.1374A1.2031,1.2031,0,0,0,36.48,32.2954Z" transform="translate(-3.7125 -5.3993)"/></svg>