<svg id="Layer_1" data-name="Layer 1" xmlns="http://www.w3.org/2000/svg" xmlns:xlink="http://www.w3.org/1999/xlink" viewBox="0 0 16 16"><defs><style>.cls-1{fill:url(#linear-gradient);}.cls-2{fill:#fff;}</style><linearGradient id="linear-gradient" x1="8" y1="-1.9072" x2="8" y2="16.2176" gradientUnits="userSpaceOnUse"><stop offset="0" stop-color="#00af4c"/><stop offset="1" stop-color="#008d48"/></linearGradient></defs><rect class="cls-1" width="16" height="16"/><path class="cls-2" d="M5.2,10.593c.3406-.2465.591-.494.9583-.7384a4.0056,4.0056,0,0,0,.4294-.2323c-.07.0156-.4254.0925-.5279.1232.0244-.0231.423-.2419.4892-.2921.0692-.0525.3283-.1392.3907-.18A1.1044,1.1044,0,0,1,7.4461,9.08s-.1448-.0253-.3049-.0517c-.1331-.022-.2817-.0054-.3619-.0152a.8483.8483,0,0,1-.3219-.1165L6.4119,8.35A1.5675,1.5675,0,0,0,6.74,8.13a3.409,3.409,0,0,1,.32-.2946c.1526-.108.3592-.1522.5146-.27a5.8215,5.8215,0,0,0,.5771-.5168,2.2243,2.2243,0,0,0,.6813-1.4114c.0608-.4867.0122-.803-.146-.84A.8135.8135,0,0,1,8.31,4.554c-.0973-.0973-.2311-.1338-.3041-.28a.4764.4764,0,0,0-.6206-.292c-.08.0251-.2279.0654-.4169.1146-.1865.0487-.4615.0512-.7043.1117-.3394.0846-.6492.1863-.9834.267-.1807.0436-.6232.1015-.8566.1809a5.3181,5.3181,0,0,1,1,.0532c-.0794.042-1.0592.14-1.128.1543-.1881.0394-.52.0734-.7077.1064-.4225.0743-1.3406.2976-1.3406.2976a6.3,6.3,0,0,1,.9479.0186c.0854.0341.0992.0623.0559.36a2.2626,2.2626,0,0,1-.065.2232c-.0256.0787-.065.1438-.0929.2258-.0347.1018-.1012.1973-.1187.2471-.0332.0943-.1445.1566-.2308.2141A.1942.1942,0,0,0,2.65,6.742a.1788.1788,0,0,0,.2656.1383.1971.1971,0,0,0,.1129-.1965.3872.3872,0,0,1,.0625-.2609c.0245-.04.0984-.1228.1593-.2207.0451-.0723.11-.1309.1543-.2009A.9078.9078,0,0,1,3.5592,5.83c.1275-.1434.3644-.2242.3946-.1619a1.6051,1.6051,0,0,1,.0719.3143c.0019.0395.0391.0773-.0869.2963-.0116.02-.2153.2273-.3422.3687-.0738.0823-.1725.1869-.2361.2575s-.143.1258-.1679.1539c-.0624.0705-.1437.078-.263.09a.3067.3067,0,0,0-.2364.1349c-.0875.1944.0526.3642.282.3047.0641-.0166.141-.1348.1611-.1979a.4027.4027,0,0,1,.1562-.2323c.0306-.0188.1113-.1005.1952-.1582a2.7381,2.7381,0,0,1,.3712-.162c.2559-.11.2474.0792.2513.1335a2.1906,2.1906,0,0,1,.0377.3151c-.0053.12-.0441.1849-.2281.2966a2.6354,2.6354,0,0,1-.45.1713,2.125,2.125,0,0,1-.3678.0329.4946.4946,0,0,1-.3275-.0872.498.498,0,0,0-.1636-.0072.243.243,0,0,0-.1838.1592.2052.2052,0,0,0,.1709.2546.3587.3587,0,0,0,.178-.0157.5666.5666,0,0,1,.338-.1535c.0491-.0038.2868-.01.4128-.0017a.9176.9176,0,0,1,.2978.0684c.2208.1043.4034.1339.42.2614l.0095.1162c-.0055.1257.0294.5881-.1323.5623-.0961-.0153-.5361-.0316-.62-.0453a2.1338,2.1338,0,0,1-.2978-.0808c-.1274-.0321-.1471-.0552-.4265-.1471A.5542.5542,0,0,1,2.5,8.4141a.2415.2415,0,0,0-.4508.1494.2638.2638,0,0,0,.25.1912,1.2382,1.2382,0,0,1,.3971.0625,4.7891,4.7891,0,0,1,.4817.2647,1.7161,1.7161,0,0,1,.3676.2757,2.7964,2.7964,0,0,1,.207.2535c.1427.193.2775.3625.22.5564a4.5237,4.5237,0,0,1-.327.6653.2207.2207,0,0,1-.3737.0354c-.1867-.1751-.59-.5375-.6706-.6266-.1348-.149-.2318-.2856-.4135-.5168a3.1182,3.1182,0,0,1-.3441-.4719A.8239.8239,0,0,1,1.78,8.8556a.2353.2353,0,0,0-.2128-.2412.3685.3685,0,0,0-.22.0532.2586.2586,0,0,0-.11.2129.2805.2805,0,0,0,.0851.1951c.0993.0848.289.1289.3512.2731.0782.1812.2133.275.2991.4794.0939.2239.2381.3755.4048.6805.1.1832.493.8732.556,1.0432a1.59,1.59,0,0,1,.0388.9621l-.1012.2772c.0668-.0742.2206-.2445.4285-.4645.1256-.1328.3194-.2631.4771-.4219.187-.1883.343-.4085.5528-.6017a3.0537,3.0537,0,0,0,.3568-.3716A4.7731,4.7731,0,0,1,5.07,10.52a3.6612,3.6612,0,0,0-.22.366C4.908,10.8436,5.1452,10.6329,5.2,10.593Zm.54-4.615c.3067-.1369.5943-.2809.6336-.2971.1553-.0638.4215-.1372.5936-.1946.222-.074.4209.1978.4087.3073s.1582.292.17.3528a2.9874,2.9874,0,0,1-.2713.695,2.5021,2.5021,0,0,1-.9368.6571s-.0723-1.0467-.0778-1.1518c-.0044-.083-.1458-.1029-.3544-.0579-.1093.0236-.2867.0258-.3912.0579-.2055.0631-.7131.17-.7131.17A7.7013,7.7013,0,0,1,5.7408,5.978Z"/><path class="cls-2" d="M13.393,6.4a.787.787,0,0,0-.0551-.2011c-.0346-.08-.0822-.1657-.1315-.2725-.0437-.0946-.0778-.2-.126-.3014-.0269-.0568-.0452-.1121-.0719-.1679-.0338-.0707-.09-.1621-.1212-.2273-.0665-.1379-.1351-.4055-.1582-.4654a.3891.3891,0,0,0-.2612-.2294.1748.1748,0,0,0-.2092.2467.5559.5559,0,0,0,.206.1579.5871.5871,0,0,1,.3281.29c.04.09.1245.2285.1593.3314.0322.0948.0612.1521.0907.2442.0393.122.0807.2212.1066.3161a.7063.7063,0,0,1,.02.2646,1.2625,1.2625,0,0,1-.0632.16.3654.3654,0,0,1-.1124.1255c-.06.0515-.1246-.0145-.1483-.0437a1.67,1.67,0,0,0-.1922-.2483,1.5513,1.5513,0,0,1,.0365.6327c-.0352.088-.1.2386-.1761.3849-.0993.1915-.1481.1831-.1912.21a.0629.0629,0,0,0-.0376.0593c-.0036.0439.0079.1673.0115.2258a1.196,1.196,0,0,1-.03.5264.7027.7027,0,0,0-.0333-.2519,1.38,1.38,0,0,0-.1154-.2416,1.4409,1.4409,0,0,1-.1573-.3072.41.41,0,0,1,.0346-.2249c.01-.0223.0507-.131.0705-.1826a5.3032,5.3032,0,0,0,.3207-1.0988.2075.2075,0,0,1,.0636-.1239.2713.2713,0,0,0-.03-.0958,2.2335,2.2335,0,0,0-.4351-.5833,1.9532,1.9532,0,0,0-.6327-.438c.0365.0973.17.1947.17.3042s.073.2555.0487.3285.1216.219.1216.2555-.1216-.0244-.1216-.0244a2.8471,2.8471,0,0,1-.1217.6936,3.992,3.992,0,0,1-.2589.5661c-.0412.07-.137.15-.1955.2294a.5711.5711,0,0,1-.3819.1362.6981.6981,0,0,0-.4673.1766.606.606,0,0,1,.2564-.3817c.0923-.0623.2343-.1515.2705-.2446.0215-.0554-.0028-.17.0206-.2586.0424-.16.0409-.2577.0736-.4375.0262-.1435.11-.5649.1383-.7269.0444-.2531.0744-.4882.0819-.5921.0034-.0485-.11-.17-.0974-.219s.2312-.1217.17-.1582c-.0212-.0126-.1582-.0811-.3387-.168a.4562.4562,0,0,1-.1772-.3237c-.01-.0949-.0535-.1736-.0621-.2505a2.41,2.41,0,0,0-.05-.3.8089.8089,0,0,0-.1689-.2852c-.0711-.0885-.1212-.18-.2242-.305a1.9258,1.9258,0,0,0-.3012-.2659,1.9584,1.9584,0,0,1-.2723-.2813c-.09-.1066-.1594-.173-.1933-.2151-.1057-.1313-.1688-.2708-.2844-.3027-.3173-.0875-.5143.124-.4085.3246.0651.1234.2984.1643.4157.19a.8906.8906,0,0,1,.4705.19c.06.0706.1869.1385.2457.22.0539.0749.15.1732.1934.2426a.6779.6779,0,0,1,.1643.496.7187.7187,0,0,1-.0942.3421.2218.2218,0,0,1-.2307.0914l-.0227-.007a2.8816,2.8816,0,0,0-1.3384-.073,1.1857,1.1857,0,0,1,.4226.0948,1.6447,1.6447,0,0,1,.4413.3554,1.8767,1.8767,0,0,1,.111.5795c.017-.0384.0462-.1057.0663-.1542a1.9757,1.9757,0,0,0,.0216.325,2.4374,2.4374,0,0,1,.0079.6245,5.5821,5.5821,0,0,1-.5483,1.3729c-.0532.0835-.1862.3852-.3152.5629-.09.1243-.1889.2327-.2673.339-.04.0539.2408-.0818.1716-.0012-.0326.0379-.2546.2067-.2815.242a1.5935,1.5935,0,0,1-.195.1977,4.2659,4.2659,0,0,0-.3285.5353,16.3159,16.3159,0,0,1,1.5817-.6327,5.0075,5.0075,0,0,1,1.317-.1525c.1559.0033.7108.0026.8987-.3807-.0417.1878-.0958.4484.0793.6068a1.5085,1.5085,0,0,1,.5156.693,1.7165,1.7165,0,0,1-.3164,1.1315s.3407-.3042.4624-.4015a2.1648,2.1648,0,0,0,.4745-.7665,9.6711,9.6711,0,0,0,.5353-1.4357.3738.3738,0,0,0-.0028-.1737l.0015.0011a.4454.4454,0,0,1,.0206-.2736c.0319-.088.0283-.1842.06-.2807.0252-.0769.0551-.1789.0806-.2427A.302.302,0,0,0,13.393,6.4Z"/><path class="cls-2" d="M10.1112,10.41c-.1356-.0707-.3034-.1706-.4894-.2814-.2008-.12-.4267-.2541-.6568-.3787-.0146-.0079-.2586-.19-.3775-.2574a.3114.3114,0,0,0-.1437.0015c-.146.0365-.4308-.1189-.6011-.0945A5.83,5.83,0,0,0,6.82,9.6346,16.04,16.04,0,0,0,5.6454,10.966a2.3818,2.3818,0,0,0-.5354.7666,1.9722,1.9722,0,0,0,.2555,1.01,1.7059,1.7059,0,0,1,.0974-.876A7.9865,7.9865,0,0,1,7.47,10.3455C7.7925,10.3233,9.4224,10.3417,10.1112,10.41Z"/><path class="cls-2" d="M11.6539,8.871a3.56,3.56,0,0,1-.34-.4583.3353.3353,0,0,1-.0175-.244c.0133-.048-.04-.018-.0725.0585a.5628.5628,0,0,0,.0839.5357.5076.5076,0,0,1-.0527.49,1.1589,1.1589,0,0,1-.4378.2965,2.5317,2.5317,0,0,1-.9408.1456c-.1436.0086-.2611.0158-.37.0207.11.0756.18.1146.4924.3055a2.5919,2.5919,0,0,0,1.0781.4843c.3614-.0577.5314-.4934.6555-.8565A.841.841,0,0,0,11.6539,8.871Z"/><path class="cls-2" d="M6.2415,12.6816a1.6114,1.6114,0,0,1-.108-.9694,1.0361,1.0361,0,0,0-.5077.5226.7057.7057,0,0,0,.082.7328,5.1822,5.1822,0,0,0,.85.2737,8.693,8.693,0,0,0,1.387.0729A4.3385,4.3385,0,0,1,6.2415,12.6816Z"/><path class="cls-2" d="M10.05,11.0755a5.0243,5.0243,0,0,0-1.0808.4308A9.2388,9.2388,0,0,0,8.14,12.6572a2.4587,2.4587,0,0,1-.4751.3357,3.958,3.958,0,0,0,.7716.1484,1.0451,1.0451,0,0,0,.32-.0254,2.4983,2.4983,0,0,0,.7708-.4587c.1947-.219.6935-1.18.7666-1.2775a.9418.9418,0,0,1,.5474-.1338A2.4922,2.4922,0,0,0,10.05,11.0755Z"/><path class="cls-2" d="M12.34,11.6549a.9.9,0,0,1-.2823-.0562c-.0419-.0084-.3955-.12-.7545-.2249a1.8239,1.8239,0,0,0-.7575.0693,1.0388,1.0388,0,0,0-.2559.4753,1.7672,1.7672,0,0,1,.4053-.0764c.1338.0122,1.18.1461,1.2653.1217a3.2743,3.2743,0,0,0,.5531-.37A.6276.6276,0,0,1,12.34,11.6549Z"/><path class="cls-2" d="M12.4959,10.88a.7417.7417,0,0,1-.0729.3893,1.2362,1.2362,0,0,1-.1235.14.3554.3554,0,0,0,.25-.0193.5464.5464,0,0,0,.207-.1185c.0344-.1725.07-.4734.0072-.5254a1.2868,1.2868,0,0,0-.4745-.1095.09.09,0,0,0-.03.0054.3217.3217,0,0,1,.09.0328A.3825.3825,0,0,1,12.4959,10.88Z"/><path class="cls-2" d="M12.16,10.7651a.1177.1177,0,0,0-.0982.0279c-.0067.0123-.0165.0271-.0225.0371a.1873.1873,0,0,0,.0244.2311.3278.3278,0,0,1,.0729-.17.2469.2469,0,0,1,.1621-.0458A.4007.4007,0,0,0,12.16,10.7651Z"/></svg>